<svg width="18" height="17" viewBox="0 0 18 17" fill="none" xmlns="http://www.w3.org/2000/svg">
<path id="path" d="M3.27261 3.24147V1.62074C3.26389 1.20129 3.43096 0.795583 3.73742 0.492007C4.04388 0.18843 4.4649 0.0115852 4.90875 0H16.3635C16.8074 0.0115852 17.2284 0.18843 17.5349 0.492007C17.8413 0.795583 18.0084 1.20129 17.9997 1.62074V9.31966C18.0084 9.73911 17.8413 10.1448 17.5349 10.4484C17.2284 10.752 16.8074 10.9288 16.3635 10.9404H15.5446V13.7754C15.5504 13.93 15.5067 14.0827 15.4192 14.2135C15.3317 14.3442 15.2045 14.447 15.0542 14.5084C14.9039 14.5698 14.7375 14.5868 14.5767 14.5574C14.416 14.528 14.2684 14.4534 14.1532 14.3434L13.1722 13.3707H7.28106L3.84499 16.772C3.72982 16.882 3.58221 16.9565 3.42146 16.986C3.26071 17.0154 3.0943 16.9983 2.944 16.9369C2.79369 16.8756 2.66648 16.7728 2.57899 16.642C2.4915 16.5112 2.44781 16.3586 2.45364 16.204V13.3724H1.63647C1.19262 13.3608 0.771603 13.1839 0.465141 12.8803C0.15868 12.5768 -0.00839246 12.1711 0.000324766 11.7516V4.86221C-0.00839246 4.44276 0.15868 4.03706 0.465141 3.73348C0.771603 3.4299 1.19262 3.25306 1.63647 3.24147H3.27261ZM13.9084 10.1292C13.8989 10.0236 13.9133 9.91725 13.9505 9.81727C13.9877 9.71729 14.047 9.62593 14.1245 9.54923C14.2019 9.47254 14.2957 9.41226 14.3996 9.37239C14.5036 9.33252 14.6153 9.31397 14.7274 9.31796H16.3635V1.62074H4.90875V9.31966H11.0447C11.1534 9.31675 11.2613 9.33711 11.3604 9.37923C11.4596 9.42135 11.5473 9.48413 11.6171 9.56286L13.9084 11.8315V10.1292ZM3.27261 4.85711H1.63647V11.7516H3.27261C3.38471 11.7476 3.49643 11.7662 3.60037 11.806C3.70431 11.8459 3.7981 11.9062 3.87553 11.9829C3.95296 12.0596 4.01226 12.1509 4.0495 12.2509C4.08675 12.3509 4.10109 12.4572 4.09158 12.5628V14.2635L6.38109 11.9948C6.45088 11.9161 6.53863 11.8533 6.63776 11.8112C6.73689 11.7691 6.84483 11.7487 6.95347 11.7516H11.5361L10.7171 10.9404H4.90875C4.4649 10.9288 4.04388 10.752 3.73742 10.4484C3.43096 10.1448 3.26389 9.73911 3.27261 9.31966V4.86221V4.85711Z" fill="#8E7648"/>
</svg>
