<svg width="18" height="18" viewBox="0 0 18 18" fill="none" xmlns="http://www.w3.org/2000/svg">
<g id="icon-secure">
<path id="path" d="M5.95512 9.3009L7.93456 11.2803L12.5079 6.70703" stroke="#8E7648" stroke-linecap="round" stroke-linejoin="round"/>
<path id="path_2" d="M9.58279 16.9099C17.531 14.324 17.1885 6.50875 16.8764 4.08446C16.8343 3.88534 16.7178 3.70972 16.5507 3.59348C16.3836 3.47724 16.1785 3.42904 15.9772 3.4587C14.8211 3.57741 13.653 3.44077 12.5555 3.05836C11.458 2.67594 10.458 2.0571 9.62601 1.24564C9.4556 1.08773 9.23184 1 8.99952 1C8.7672 1 8.54343 1.08773 8.37302 1.24564C7.5411 2.05719 6.54105 2.67613 5.44357 3.05855C4.34608 3.44097 3.17798 3.57752 2.02186 3.4587C1.8205 3.42904 1.61538 3.47724 1.44831 3.59348C1.28123 3.70972 1.16473 3.88534 1.12253 4.08446C0.810497 6.51035 0.468078 14.3256 8.41624 16.9099C8.79568 17.0309 9.20335 17.0309 9.58279 16.9099Z" stroke="#8E7648" stroke-linecap="round" stroke-linejoin="round"/>
</g>
</svg>
