<svg width="18" height="17" viewBox="0 0 18 17" fill="none" xmlns="http://www.w3.org/2000/svg">
<g id="language">
<path id="Path 58" d="M11.822 15.0076L14.4791 17V15.0076H17.5V6.0095H11.4905V0H0.5V8.9981H3.5209V10.9905L6.178 8.9981H6.518V15.0076H11.822ZM16.5038 14.0114H13.4829V15.0076L12.1552 14.0114H7.5057V7.0057H16.5038V14.0114ZM5.8465 8.0019L4.5188 8.9981V8.0019H1.4962V0.9962H10.4943V6.0095H8.32L6.0114 1.4093L3.5736 6.29L4.4644 6.7354L5.0747 5.5165H6.9447L7.1929 6.0146H6.5129V8.0019H5.8465ZM6.45 4.5152H5.5728L6.0114 3.6363L6.45 4.5152Z" fill="#8E7648"/>
<path id="Path 59" d="M11.006 11.3015C10.5979 11.7004 10.083 11.9725 9.52359 12.0852V13.2276C10.384 13.1132 11.1846 12.7245 11.8067 12.1192C12.4288 12.7245 13.2294 13.1132 14.0898 13.2276V12.0852C13.5304 11.9725 13.0155 11.7004 12.6074 11.3015C12.9858 10.8647 13.2695 10.3542 13.4404 9.80212H14.661V8.65973H12.3779V7.51733H11.2355V8.65973H8.95239V9.80212H10.173C10.3439 10.3542 10.6276 10.8648 11.006 11.3015ZM11.8067 10.4753C11.6408 10.2654 11.4993 10.0373 11.3851 9.79533H12.2351C12.1187 10.0376 11.975 10.2658 11.8067 10.4753Z" fill="#8E7648"/>
</g>
</svg>
