<svg width="111" height="115" viewBox="0 0 111 115" fill="none" xmlns="http://www.w3.org/2000/svg">
<g id="Layer 4">
<g id="Group 10442">
<path id="Path 25524" d="M37.4402 2.78076V7.07432H5.0042V72.3075L0.470947 68.4375V2.78076H37.4402Z" fill="#8E754C"/>
<path id="Path 25525" d="M34.2216 9.7793V14.0729H10.9403V78.589L6.40698 74.7598V9.7793H34.2216Z" fill="#8E754C"/>
<path id="Path 25526" d="M110.346 2.93604V68.596L105.816 72.466V7.22957H73.2158V2.93604H110.346Z" fill="#8E754C"/>
<path id="Path 25527" d="M104.258 9.7793V74.7598L99.7245 78.589V14.0729H76.7485V9.7793H104.258Z" fill="#8E754C"/>
<path id="Path 25528" d="M99.7212 90.8798L104.253 86.626V114.883H99.7212V90.8798Z" fill="#907646"/>
<path id="Path 25529" d="M105.809 85.051L110.341 79.7642V114.886H105.809V85.051Z" fill="#907646"/>
<path id="Path 25530" d="M11.0908 90.8798L6.55859 86.626V114.883H11.0908V90.8798Z" fill="#907646"/>
<path id="Path 25531" d="M5.0042 85.051L0.470947 79.7642V114.886H5.0042V85.051Z" fill="#907646"/>
<path id="Path 25532" d="M55.3271 0.015625L47.2969 13.9229H63.3563L55.3271 0.015625ZM55.3271 6.21302L58.0007 10.828H52.6644L55.3271 6.21302Z" fill="#907646"/>
<path id="Path 25533" d="M90.2742 21.0273V23.3063H95.2041V25.9045H84.4434V18.4312H95.2041V21.0273H90.2742Z" fill="#0E415F"/>
<path id="Rectangle 18004" d="M95.2041 29.1357H84.4434V83.8758H95.2041V29.1357Z" fill="#0E415F"/>
<path id="Rectangle 18005" d="M40.8984 73.2627H30.7224V83.4386H40.8984V73.2627Z" fill="#0E415F"/>
<path id="Path 25534" d="M95.2041 88.9254V114.883H14.9016V18.4312H25.5172V104.509H30.7234V86.1422H40.9015V104.507H84.439V99.2604H45.7509V73.2637H80.2584V83.4396H56.159V88.9221L95.2041 88.9254Z" fill="#0E415F"/>
<path id="Path 25535" d="M80.2552 18.4312V68.3337H30.7224V18.4312H51.7924V29.136H41.5369V57.5977H69.4418V29.136H56.7998V18.4312H80.2552Z" fill="#0E415F"/>
<path id="Ellipse 20" d="M55.4871 52.6548C59.9945 52.6548 63.6485 49.0008 63.6485 44.4934C63.6485 39.986 59.9945 36.332 55.4871 36.332C50.9797 36.332 47.3257 39.986 47.3257 44.4934C47.3257 49.0008 50.9797 52.6548 55.4871 52.6548Z" fill="#8E754C"/>
</g>
</g>
</svg>
