<svg width="18" height="14" viewBox="0 0 18 14" fill="none" xmlns="http://www.w3.org/2000/svg">
<g id="mail">
<g id="Group 942">
<g id="Group 941">
<path id="Path 1275" d="M16.07 0.115967H1.61801C1.38923 0.117078 1.16365 0.169714 0.958008 0.269966L8.81001 8.12196L10.57 6.43097L16.73 0.270966C16.5244 0.170367 16.2989 0.117389 16.07 0.115967Z" fill="#0C3F61"/>
</g>
</g>
<g id="Group 944">
<g id="Group 943">
<path id="Path 1276" d="M17.456 0.99707L11.656 6.79707L17.456 12.5971C17.5562 12.3914 17.6089 12.1658 17.61 11.9371V1.65707C17.6089 1.4283 17.5563 1.20271 17.456 0.99707Z" fill="#0C3F61"/>
</g>
</g>
<g id="Group 946">
<g id="Group 945">
<path id="Path 1277" d="M0.230904 0.99707C0.130652 1.20271 0.0780153 1.42829 0.0769043 1.65707L0.0769043 11.9311C0.0780153 12.1598 0.130652 12.3854 0.230904 12.5911L6.0309 6.79107L0.230904 0.99707Z" fill="#0C3F61"/>
</g>
</g>
<g id="Group 948">
<g id="Group 947">
<path id="Path 1278" d="M10.9328 7.52005L9.17283 9.21106C9.12519 9.25877 9.0686 9.29662 9.00632 9.32245C8.94403 9.34827 8.87726 9.36157 8.80984 9.36157C8.74241 9.36157 8.67564 9.34827 8.61335 9.32245C8.55106 9.29662 8.49448 9.25877 8.44683 9.21106L6.75483 7.51904L0.954834 13.3191C1.16039 13.4197 1.38598 13.4726 1.61483 13.4741H16.0698C16.2986 13.4729 16.5242 13.4203 16.7298 13.32L10.9328 7.52005Z" fill="#0C3F61"/>
</g>
</g>
</g>
</svg>
