<svg width="17" height="18" viewBox="0 0 17 18" fill="none" xmlns="http://www.w3.org/2000/svg">
<rect width="17" height="18" fill="#E0E0E0"/>
<g id="24" clip-path="url(#clip0_0_1)">
<g id="Clip path group">
<mask id="mask0_0_1" style="mask-type:luminance" maskUnits="userSpaceOnUse" x="-98" y="-101" width="411" height="658">
<g id="clip-Speaker_48">
<path id="Vector" d="M313 -101H-98V557H313V-101Z" fill="white"/>
</g>
</mask>
<g mask="url(#mask0_0_1)">
<g id="Speaker &#226;&#128;&#147; 48">
<path id="Vector_2" d="M313 -101H-98V557H313V-101Z" fill="white"/>
<path id="Rectangle 2216" d="M313 -101H-98V557H313V-101Z" fill="#32384D" fill-opacity="0.76"/>
<path id="Rectangle 18188" d="M-42 -61C-42 -83.0914 -24.0914 -101 -2 -101H313V557H-1.99999C-24.0914 557 -42 539.091 -42 517V-61Z" fill="#F4F8FB"/>
<g id="Group 10459">
<path id="Rectangle 2507" d="M289 -19H-18C-23.5228 -19 -28 -14.5228 -28 -9V22C-28 27.5228 -23.5228 32 -18 32H289C294.523 32 299 27.5228 299 22V-9C299 -14.5228 294.523 -19 289 -19Z" fill="white"/>
<g id="Group 2791">
<g id="Group 2134">
<g id="Group 2133">
<path id="Path 1315" d="M1.05388 13.8092L2.34261 11.9278C2.92981 11.0823 3.24634 10.0783 3.25027 9.04881V7.39851C3.29966 6.3522 3.69462 5.3518 4.37331 4.55394C5.052 3.75607 5.9761 3.20578 7.00094 2.98922V1.81301C7.04979 1.44975 7.22878 1.11655 7.50469 0.875256C7.78059 0.633965 8.13468 0.500977 8.50121 0.500977C8.86774 0.500977 9.22183 0.633965 9.49773 0.875256C9.77364 1.11655 9.95263 1.44975 10.0015 1.81301V2.99372C11.0263 3.21029 11.9504 3.76057 12.6291 4.55844C13.3078 5.3563 13.7028 6.3567 13.7521 7.40301V9.04881C13.7573 10.0774 14.0743 11.0802 14.6613 11.9248L15.95 13.8062C15.9826 13.8553 16 13.913 16 13.9719C16 14.0309 15.9826 14.0886 15.95 14.1377C15.9138 14.1903 15.8651 14.233 15.8083 14.262C15.7514 14.2911 15.6883 14.3056 15.6245 14.3042H1.37193C1.30792 14.3056 1.24456 14.2911 1.1875 14.262C1.13044 14.233 1.08145 14.1903 1.04488 14.1377C1.01425 14.088 0.998788 14.0305 1.00039 13.9721C1.00199 13.9137 1.02057 13.8571 1.05388 13.8092Z" stroke="#8E7648"/>
</g>
</g>
<g id="Group 2136">
<g id="Group 2135">
<path id="Path 1316" d="M10.4695 15.7505C10.2938 16.124 10.0154 16.4398 9.66681 16.661C9.31827 16.8822 8.91399 16.9996 8.50118 16.9996C8.08838 16.9996 7.6841 16.8822 7.33555 16.661C6.98701 16.4398 6.7086 16.124 6.53284 15.7505H10.4695Z" stroke="#8E7648"/>
</g>
</g>
</g>
</g>
</g>
</g>
</g>
</g>
<defs>
<clipPath id="clip0_0_1">
<rect width="411" height="658" fill="white" transform="translate(-98 -101)"/>
</clipPath>
</defs>
</svg>
