<svg width="17" height="17" viewBox="0 0 17 17" fill="none" xmlns="http://www.w3.org/2000/svg">
<path id="path" d="M12.0151 15.4071C11.9998 15.8109 11.8379 16.1954 11.5598 16.4885C11.2816 16.7817 10.9062 16.9635 10.5037 17H1.51145C0.680068 17 0 16.0446 0 14.875V14.3446C0 14.0267 0.0748073 13.8142 0.0748073 13.4946C0.150748 12.9631 0.226123 12.5381 0.30093 12.2196C0.754876 10.8392 3.85258 9.1392 6.0441 9.1392C7.23185 9.21794 8.39004 9.54393 9.44444 10.0963C10.3318 9.46439 11.3797 9.09607 12.4673 9.0338C13.3263 9.07623 14.1634 9.31949 14.9113 9.74405C15.6593 10.1686 16.2972 10.7626 16.7739 11.4784C16.8769 11.8231 16.9279 12.1812 16.9252 12.5409C16.9252 12.7534 17 12.9659 17 13.1784V13.6C17 14.6625 16.3947 15.5125 15.7147 15.5125H12.0151V15.4071ZM11.1837 11.475C11.4386 11.7011 11.6223 11.9964 11.7125 12.325C11.8099 12.6741 11.8854 13.029 11.9386 13.3875H15.4902C15.5023 13.2418 15.4765 13.0954 15.4154 12.9625C15.4154 12.8571 15.4154 12.6446 15.3406 12.6446C15.3406 12.6446 15.2658 12.5375 15.1893 12.5375C14.9506 12.3426 14.6983 12.1647 14.4344 12.0054C13.8242 11.613 13.1193 11.3928 12.3942 11.3679C12.2 11.2825 11.9874 11.2476 11.7761 11.2663C11.5648 11.285 11.3616 11.3568 11.1854 11.475H11.1837ZM12.469 7.9679C11.1837 7.9679 10.2027 6.5875 10.2027 4.7804C10.2027 2.9733 11.1854 1.5929 12.469 1.5929C13.7527 1.5929 14.7354 2.9733 14.7354 4.7804C14.7354 6.5875 13.7527 7.9679 12.469 7.9679ZM12.469 5.8429C12.923 5.8429 13.2239 5.4179 13.2239 4.7804C13.2239 4.1429 12.9213 3.7179 12.469 3.7179C12.0168 3.7179 11.7142 4.1429 11.7142 4.7804C11.7142 5.4179 12.0168 5.8429 12.469 5.8429ZM6.0458 7.8625C4.53435 7.8625 3.25073 6.0571 3.25073 3.9321C3.25073 1.8071 4.53435 0 6.0458 0C7.55726 0 8.84088 1.8071 8.84088 3.9304C8.84088 6.0537 7.55556 7.8625 6.0458 7.8625ZM6.0458 5.7375C6.72587 5.7375 7.33113 4.8875 7.33113 3.9321C7.33113 2.9767 6.72587 2.125 6.0458 2.125C5.36574 2.125 4.76048 2.975 4.76048 3.9304C4.76048 4.8858 5.36574 5.7375 6.0458 5.7375ZM10.4288 13.2821C10.3488 13.1581 10.2462 13.0502 10.1262 12.9642C9.78647 12.6984 9.43352 12.4498 9.06871 12.2196C8.15204 11.6639 7.11538 11.3362 6.0458 11.2642C4.97096 11.3072 3.92721 11.6371 3.0229 12.2196C2.65809 12.4498 2.30514 12.6984 1.9654 12.9642C1.84528 13.0507 1.7426 13.1592 1.66277 13.2838C1.62464 13.4945 1.59965 13.7075 1.58796 13.9213C1.58796 14.1338 1.51315 14.4517 1.51315 14.6659V14.8784H10.5037V14.6659C10.5037 14.4534 10.4288 14.1355 10.4288 13.923V13.2855V13.2821Z" fill="#8E7648"/>
</svg>
