<svg width="18" height="18" viewBox="0 0 18 18" fill="none" xmlns="http://www.w3.org/2000/svg">
<g id="Group 10453">
<path id="Path 1279" d="M15.777 11.259C14.7379 11.2609 13.7052 11.0965 12.718 10.772C12.4859 10.6973 12.2384 10.6845 11.9999 10.7348C11.7613 10.7851 11.5401 10.8969 11.358 11.059L9.43 12.515C7.35389 11.4815 5.67149 9.79911 4.638 7.723L6.051 5.845C6.23063 5.66527 6.35743 5.43964 6.41757 5.19276C6.4777 4.94587 6.46886 4.6872 6.392 4.445C6.06501 3.45487 5.8989 2.41872 5.9 1.376C5.89947 1.01174 5.75475 0.662512 5.49746 0.404662C5.24017 0.146812 4.89125 0.00132131 4.527 0L1.376 0C1.01122 0.000529044 0.661541 0.14567 0.403605 0.403605C0.14567 0.661541 0.000529044 1.01122 0 1.376C0.00581949 5.55863 1.66987 9.56829 4.62734 12.5259C7.58482 15.4836 11.5944 17.1479 15.777 17.154C16.1418 17.1535 16.4915 17.0083 16.7494 16.7504C17.0073 16.4925 17.1525 16.1428 17.153 15.778V12.636C17.1527 12.2711 17.0077 11.9211 16.7497 11.663C16.4918 11.4048 16.1419 11.2595 15.777 11.259Z" fill="#0C3F61"/>
</g>
</svg>
