<svg width="18" height="17" viewBox="0 0 18 17" fill="none" xmlns="http://www.w3.org/2000/svg">
<g id="Layer 14">
<path id="Path 20962" d="M7.60054 12.6999V10.6693C7.56043 10.4565 7.44725 10.2644 7.28056 10.1262C7.11386 9.98799 6.90413 9.91235 6.68759 9.91235C6.47106 9.91235 6.26132 9.98799 6.09463 10.1262C5.92793 10.2644 5.81475 10.4565 5.77465 10.6693V12.6999C5.55662 12.8213 5.38334 13.0095 5.28036 13.2368C5.17738 13.464 5.15015 13.7184 5.20268 13.9623C5.27986 14.2136 5.42614 14.4381 5.62484 14.6101C5.82353 14.7822 6.06661 14.8949 6.32631 14.9354C6.44548 14.9602 6.56673 14.9738 6.68844 14.976C6.98738 14.9896 7.28371 14.9148 7.54043 14.761C7.79714 14.6073 8.00286 14.3813 8.13189 14.1112C8.2284 13.8515 8.22778 13.5656 8.13013 13.3062C8.03249 13.0469 7.84441 12.8316 7.60054 12.6999ZM7.2621 14.3008C7.12299 14.3944 6.96368 14.4538 6.79722 14.4741C6.63075 14.4944 6.46185 14.475 6.30431 14.4175C6.15787 14.373 6.02793 14.2861 5.93093 14.1677C5.83393 14.0493 5.77424 13.9048 5.75942 13.7525C5.75911 13.601 5.80492 13.453 5.89077 13.3281C5.97661 13.2033 6.09843 13.1076 6.24001 13.0536C6.28371 13.0353 6.32127 13.0048 6.34825 12.9658C6.37523 12.9269 6.39052 12.881 6.3923 12.8336V10.6778C6.40537 10.6065 6.443 10.5421 6.49865 10.4957C6.5543 10.4493 6.62445 10.4239 6.6969 10.4239C6.76934 10.4239 6.8395 10.4493 6.89515 10.4957C6.9508 10.5421 6.98843 10.6065 7.0015 10.6778V12.8387C7.00328 12.8861 7.01857 12.9319 7.04555 12.9709C7.07253 13.0099 7.11009 13.0403 7.1538 13.0587C7.27398 13.1112 7.37847 13.194 7.45707 13.299C7.53567 13.404 7.58569 13.5276 7.60223 13.6577C7.6097 13.786 7.58216 13.914 7.52255 14.0278C7.46293 14.1417 7.37349 14.2372 7.26379 14.3042L7.2621 14.3008Z" fill="#8E7648"/>
<path id="Path 20963" d="M17.2444 10.1752L16.3256 9.97556C15.8688 9.8735 15.4371 9.6809 15.0561 9.40914C14.675 9.13737 14.3523 8.79197 14.1071 8.39335C14.0822 8.35238 14.0471 8.31851 14.0054 8.295C13.9636 8.2715 13.9164 8.25915 13.8685 8.25915C13.8205 8.25915 13.7734 8.2715 13.7316 8.295C13.6898 8.31851 13.6548 8.35238 13.6299 8.39335C13.2836 8.95498 12.7839 9.40591 12.1898 9.69297V8.53719C12.1887 8.27012 12.1092 8.00926 11.9612 7.78695C11.8132 7.56465 11.6032 7.39069 11.3572 7.28665V4.71618C11.3572 3.46537 10.8604 2.26579 9.9759 1.38134C9.09144 0.496882 7.89187 0 6.64106 0C5.39025 0 4.19067 0.496882 3.30621 1.38134C2.42176 2.26579 1.92487 3.46537 1.92487 4.71618V7.28665C1.67922 7.39094 1.46957 7.56502 1.32188 7.7873C1.17419 8.00959 1.09496 8.27031 1.094 8.53719V9.35622H0.816478C0.743613 9.35576 0.67353 9.38416 0.621532 9.43521C0.569535 9.48625 0.539848 9.5558 0.538956 9.62866V14.5361C0.539848 14.6089 0.569535 14.6785 0.621532 14.7295C0.67353 14.7806 0.743613 14.809 0.816478 14.8085H1.094V15.6275C1.09555 15.8082 1.13267 15.9868 1.20324 16.1531C1.27382 16.3194 1.37646 16.4702 1.50531 16.5969C1.63417 16.7235 1.7867 16.8236 1.95422 16.8913C2.12173 16.959 2.30094 16.993 2.48161 16.9915H10.8039C10.9846 16.993 11.1638 16.959 11.3313 16.8913C11.4988 16.8236 11.6513 16.7235 11.7802 16.5969C11.909 16.4702 12.0117 16.3194 12.0823 16.1531C12.1528 15.9868 12.1899 15.8082 12.1915 15.6275V15.592C12.5725 16.032 13.0004 16.4292 13.4674 16.7765L13.6891 16.9458C13.7378 16.9826 13.7973 17.0025 13.8583 17.0025C13.9194 17.0025 13.9788 16.9826 14.0275 16.9458L14.2492 16.7765C15.2404 16.0445 16.0469 15.0912 16.6045 13.9924C17.1621 12.8936 17.4554 11.6798 17.461 10.4477C17.4621 10.3842 17.441 10.3224 17.4015 10.2727C17.362 10.223 17.3065 10.1886 17.2444 10.1752ZM2.48161 4.71618C2.48161 3.61258 2.92001 2.55418 3.70038 1.77381C4.48074 0.993448 5.53915 0.555044 6.64275 0.555044C7.74635 0.555044 8.80475 0.993448 9.58512 1.77381C10.3655 2.55418 10.8039 3.61258 10.8039 4.71618V7.17327H9.6938V4.71618C9.6938 3.90677 9.37226 3.13051 8.79992 2.55817C8.22758 1.98582 7.45132 1.66429 6.6419 1.66429C5.83249 1.66429 5.05623 1.98582 4.48389 2.55817C3.91154 3.13051 3.59001 3.90677 3.59001 4.71618V7.17327H2.48161V4.71618ZM9.13875 7.17327H4.14505V4.71618C4.162 4.06523 4.43249 3.44663 4.8989 2.99221C5.3653 2.5378 5.99073 2.28349 6.6419 2.28349C7.29308 2.28349 7.9185 2.5378 8.38491 2.99221C8.85131 3.44663 9.12181 4.06523 9.13875 4.71618V7.17327ZM3.86753 9.90111V10.9926H1.094V9.90111H3.86753ZM1.094 14.2687V13.1772H3.86753V14.2687H1.094ZM3.86753 12.6306H1.094V11.5392H3.86753V12.6306ZM11.6348 15.6326C11.6339 15.7411 11.6116 15.8483 11.5693 15.9481C11.527 16.048 11.4654 16.1385 11.3881 16.2146C11.3108 16.2906 11.2193 16.3507 11.1187 16.3914C11.0182 16.4321 10.9106 16.4525 10.8022 16.4516H2.48161C2.37316 16.4525 2.2656 16.4321 2.16507 16.3914C2.06454 16.3507 1.973 16.2906 1.89569 16.2146C1.81838 16.1385 1.75681 16.048 1.71449 15.9481C1.67217 15.8483 1.64993 15.7411 1.64904 15.6326V14.8153H4.14505C4.18198 14.8166 4.2188 14.8106 4.25333 14.7974C4.28787 14.7843 4.31941 14.7643 4.34608 14.7388C4.37276 14.7132 4.39402 14.6825 4.40861 14.6486C4.42321 14.6146 4.43083 14.5781 4.43103 14.5411V9.63374C4.43014 9.56088 4.40045 9.49133 4.34846 9.44028C4.29646 9.38924 4.22638 9.36084 4.15351 9.36129H1.64904V8.53719C1.64993 8.42874 1.67217 8.32153 1.71449 8.22168C1.75681 8.12183 1.81838 8.03129 1.89569 7.95524C1.973 7.87918 2.06454 7.8191 2.16507 7.77842C2.2656 7.73774 2.37316 7.71727 2.48161 7.71816H10.8039C11.0226 7.71681 11.2329 7.80229 11.3887 7.95584C11.5445 8.10939 11.633 8.31847 11.6348 8.53719V9.90111C11.5518 9.92649 11.4655 9.95018 11.3826 9.96879L10.4638 10.1736C10.4017 10.1869 10.3462 10.2213 10.3067 10.271C10.2672 10.3207 10.2461 10.3825 10.2472 10.446C10.253 12.0293 10.7366 13.574 11.6348 14.8779V15.6326ZM13.9091 16.3417L13.8532 16.3823L13.7974 16.3417C12.9026 15.6822 12.1684 14.8291 11.6497 13.8459C11.131 12.8628 10.8413 11.7752 10.8022 10.6643L11.4977 10.512C12.4337 10.3094 13.268 9.78258 13.8532 9.02454C14.4376 9.78191 15.2706 10.3087 16.2054 10.512L16.9043 10.6643C16.8652 11.7756 16.5754 12.8637 16.0564 13.8471C15.5374 14.8306 14.8028 15.6839 13.9074 16.3433L13.9091 16.3417Z" fill="#8E7648"/>
<path id="Path 20964" d="M15.3018 11.2971L14.7603 11.0703L14.5538 11.4088C14.0821 11.1738 13.547 11.0978 13.0285 11.192C12.51 11.2863 12.0359 11.5457 11.6771 11.9316C11.5254 12.1103 11.4149 12.3202 11.3535 12.5464C11.2922 12.7726 11.2814 13.0096 11.3219 13.2404C11.3624 13.4713 11.4533 13.6903 11.5881 13.8821C11.7229 14.0738 11.8983 14.2335 12.1018 14.3498C12.5461 14.6359 13.07 14.7728 13.5975 14.7406C14.1249 14.7083 14.6283 14.5086 15.0344 14.1704C15.2153 14.0224 15.3611 13.8359 15.4612 13.6246C15.5613 13.4134 15.6132 13.1825 15.6132 12.9487C15.6132 12.7149 15.5613 12.484 15.4612 12.2727C15.3611 12.0614 15.2153 11.875 15.0344 11.7269L15.3018 11.2971ZM15.031 12.9537C15.0136 13.2596 14.8917 13.5503 14.6856 13.777C14.4795 14.0037 14.2018 14.1528 13.8989 14.1992C13.5831 14.2792 13.2508 14.2656 12.9426 14.1601C12.6343 14.0547 12.3634 13.8619 12.1627 13.6052C11.9942 13.3657 11.9262 13.0696 11.9733 12.7805C12.0205 12.4914 12.179 12.2322 12.4149 12.0586C12.677 11.8574 12.9901 11.7333 13.3189 11.7001C13.6477 11.6669 13.9792 11.726 14.2763 11.8707L13.4556 13.2363L12.8464 12.5595L12.359 12.8624L13.2711 13.8777C13.3025 13.9106 13.3404 13.9365 13.3823 13.954C13.4242 13.9715 13.4694 13.9801 13.5148 13.9792H13.5419C13.5905 13.9769 13.638 13.9631 13.6803 13.939C13.7227 13.9149 13.7587 13.8811 13.7855 13.8405L14.7501 12.2379C14.9252 12.4357 15.0236 12.6896 15.0276 12.9537H15.031Z" fill="#8E7648"/>
</g>
</svg>
