<svg width="19" height="18" viewBox="0 0 19 18" fill="none" xmlns="http://www.w3.org/2000/svg">
<path id="Significon-Lock" fill-rule="evenodd" clip-rule="evenodd" d="M8.882 14.647C8.99256 14.647 9.10064 14.6798 9.19256 14.7412C9.28449 14.8027 9.35614 14.89 9.39845 14.9921C9.44076 15.0942 9.45183 15.2066 9.43026 15.3151C9.40869 15.4235 9.35545 15.5231 9.27727 15.6013C9.19909 15.6795 9.09949 15.7327 8.99106 15.7543C8.88262 15.7758 8.77022 15.7648 8.66808 15.7225C8.56594 15.6802 8.47863 15.6085 8.41721 15.5166C8.35578 15.4247 8.323 15.3166 8.323 15.206C8.323 15.0578 8.38189 14.9156 8.48673 14.8107C8.59156 14.7059 8.73374 14.647 8.882 14.647ZM8.323 10.735C8.323 10.5868 8.38189 10.4446 8.48673 10.3397C8.59156 10.2349 8.73374 10.176 8.882 10.176C9.03026 10.176 9.17244 10.2349 9.27727 10.3397C9.3821 10.4446 9.441 10.5868 9.441 10.735V12.97C9.441 13.1183 9.3821 13.2605 9.27727 13.3653C9.17244 13.4701 9.03026 13.529 8.882 13.529C8.73374 13.529 8.59156 13.4701 8.48673 13.3653C8.38189 13.2605 8.323 13.1183 8.323 12.97V10.735ZM16.146 17.999H2.735C2.14241 17.999 1.57408 17.7637 1.15497 17.3448C0.735855 16.9258 0.500265 16.3576 0.5 15.765L0.5 10.736C0.5 10.5878 0.558894 10.4456 0.663727 10.3407C0.76856 10.2359 0.910744 10.177 1.059 10.177C1.20726 10.177 1.34944 10.2359 1.45427 10.3407C1.55911 10.4456 1.618 10.5878 1.618 10.736V15.486C1.618 15.8573 1.7655 16.2134 2.02805 16.476C2.2906 16.7385 2.6467 16.886 3.018 16.886H15.867C16.2383 16.886 16.5944 16.7385 16.8569 16.476C17.1195 16.2134 17.267 15.8573 17.267 15.486V10.456C17.267 10.0847 17.1195 9.72862 16.8569 9.46607C16.5944 9.20352 16.2383 9.05602 15.867 9.05602H5.529C5.08502 9.05602 4.65917 8.87985 4.34495 8.56619C4.03072 8.25253 3.85379 7.827 3.853 7.38302V5.70702C3.853 4.22499 4.44173 2.80366 5.48969 1.75571C6.53764 0.707753 7.95897 0.119019 9.441 0.119019C10.923 0.119019 12.3444 0.707753 13.3923 1.75571C14.4403 2.80366 15.029 4.22499 15.029 5.70702V6.26602C15.029 6.41427 14.9701 6.55646 14.8653 6.66129C14.7604 6.76612 14.6183 6.82502 14.47 6.82502C14.3217 6.82502 14.1796 6.76612 14.0747 6.66129C13.9699 6.55646 13.911 6.41427 13.911 6.26602V5.70702C13.911 4.5215 13.4401 3.38454 12.6018 2.54625C11.7635 1.70796 10.6265 1.23702 9.441 1.23702C8.25548 1.23702 7.11852 1.70796 6.28023 2.54625C5.44195 3.38454 4.971 4.5215 4.971 5.70702V7.10702C4.97087 7.21715 4.99245 7.32623 5.0345 7.42801C5.07656 7.5298 5.13826 7.6223 5.21609 7.70022C5.29392 7.77814 5.38634 7.83996 5.48808 7.88213C5.58982 7.92431 5.69887 7.94602 5.809 7.94602H16.146C16.7388 7.94602 17.3072 8.18149 17.7264 8.60063C18.1455 9.01978 18.381 9.58826 18.381 10.181V15.769C18.381 16.3618 18.1455 16.9303 17.7264 17.3494C17.3072 17.7685 16.7388 18.004 16.146 18.004V17.999ZM2.176 9.05902C2.06544 9.05902 1.95736 9.02623 1.86544 8.96481C1.77351 8.90339 1.70186 8.81608 1.65955 8.71394C1.61724 8.61179 1.60617 8.4994 1.62774 8.39096C1.64931 8.28253 1.70255 8.18292 1.78073 8.10475C1.8589 8.02657 1.95851 7.97333 2.06694 7.95176C2.17538 7.93019 2.28778 7.94126 2.38992 7.98357C2.49206 8.02588 2.57937 8.09753 2.64079 8.18946C2.70222 8.28138 2.735 8.38946 2.735 8.50002C2.735 8.64827 2.67611 8.79046 2.57127 8.89529C2.46644 9.00012 2.32426 9.05902 2.176 9.05902Z" fill="#8E754C"/>
</svg>
