<svg width="18" height="19" viewBox="0 0 18 19" fill="none" xmlns="http://www.w3.org/2000/svg">
<g id="whatsapp (1)">
<path id="Path 2468" d="M8.805 0.74707C7.06354 0.74707 5.36118 1.26347 3.91321 2.23098C2.46523 3.19849 1.33667 4.57364 0.670245 6.18254C0.00381505 7.79145 -0.170553 9.56184 0.16919 11.2698C0.508932 12.9778 1.34753 14.5467 2.57893 15.7781C3.81033 17.0095 5.37923 17.8481 7.08723 18.1879C8.79524 18.5276 10.5656 18.3533 12.1745 17.6868C13.7834 17.0204 15.1586 15.8918 16.1261 14.4439C17.0936 12.9959 17.61 11.2935 17.61 9.55207C17.6097 7.21692 16.682 4.97749 15.0308 3.32629C13.3796 1.67509 11.1402 0.747335 8.805 0.74707ZM8.992 14.6791C8.11198 14.6792 7.24595 14.4588 6.473 14.0381L3.679 14.7711L4.427 12.0411C3.84795 11.0361 3.61661 9.86812 3.76887 8.71828C3.92112 7.56844 4.44846 6.50095 5.26913 5.6813C6.0898 4.86165 7.15795 4.33564 8.30798 4.18482C9.45801 4.03399 10.6257 4.26678 11.6299 4.84709C12.6342 5.42739 13.419 6.32281 13.8626 7.3945C14.3062 8.4662 14.3839 9.6543 14.0835 10.7746C13.7832 11.8949 13.1217 12.8849 12.2015 13.591C11.2813 14.2971 10.1539 14.6799 8.994 14.6801L8.992 14.6791Z" fill="#0C3F61"/>
<path id="Path 2469" d="M8.99403 5.02808C8.21134 5.02795 7.44289 5.23751 6.76862 5.63496C6.09434 6.03242 5.53887 6.60326 5.15994 7.28812C4.78102 7.97298 4.59248 8.74685 4.61395 9.52926C4.63543 10.3117 4.86611 11.074 5.28203 11.7371L5.38204 11.9031L4.93903 13.5191L6.59703 13.0841L6.75704 13.1791C7.43189 13.5786 8.20178 13.7893 8.98604 13.7891C10.1364 13.7717 11.2337 13.3025 12.041 12.4829C12.8483 11.6633 13.3008 10.559 13.3008 9.40858C13.3008 8.25813 12.8483 7.15384 12.041 6.33423C11.2337 5.51462 10.1364 5.04546 8.98604 5.02808H8.99403ZM11.57 11.2891C11.473 11.4491 11.344 11.5873 11.191 11.695C11.038 11.8027 10.8644 11.8777 10.681 11.9151C10.4044 11.9624 10.1206 11.9445 9.85204 11.8631C9.59701 11.784 9.34632 11.6915 9.10103 11.5861C8.19174 11.1295 7.41674 10.4445 6.85204 9.59808C6.54391 9.20615 6.35691 8.73278 6.31403 8.23608C6.31011 8.03074 6.3491 7.82685 6.42848 7.63744C6.50786 7.44802 6.62589 7.27727 6.77503 7.13608C6.81899 7.08586 6.87287 7.04527 6.93327 7.01688C6.99368 6.98848 7.05932 6.97289 7.12604 6.97108C7.21404 6.97108 7.30204 6.97108 7.37804 6.97108C7.45404 6.97108 7.56703 6.94007 7.67803 7.19707C7.78903 7.45407 8.05103 8.10807 8.08403 8.17407C8.10491 8.20863 8.11686 8.24785 8.11878 8.28819C8.1207 8.32852 8.11254 8.36869 8.09503 8.40508C7.99667 8.56302 7.88671 8.71344 7.76604 8.85508C7.70804 8.92708 7.63104 8.99208 7.70804 9.12408C7.90599 9.46261 8.15299 9.76995 8.44103 10.0361C8.75345 10.3136 9.11181 10.5345 9.50003 10.6891C9.63203 10.7551 9.70803 10.7441 9.78504 10.6561C9.86204 10.5681 10.114 10.2721 10.202 10.1401C10.29 10.0081 10.378 10.0301 10.502 10.0741C10.626 10.1181 11.27 10.4361 11.402 10.5021C11.534 10.5681 11.621 10.6021 11.654 10.6561C11.69 10.8678 11.6632 11.0854 11.577 11.2821L11.57 11.2891Z" fill="#0C3F61"/>
</g>
</svg>
